# xmcd CD database file
#
# Track frame offsets:
#	150
#	12972
#	30137
#	45476
#	58452
#	74276
#	89534
#	103424
#	114779
#	132809
#	144367
#	156871
#	174768
#	188904
#	201383
#	209165
#	218871
#	230241
#
# Disc length: 3236 seconds
#
# Revision: 1
# Processed by: cddbd v1.5.2PL0 Copyright (c) Steve Scherf et al.
# Submitted via: CDex 1.70beta2
#
DISCID=080ca212
DTITLE=Various Artist - Jazz Manouche (Vol. 4 - cd 1)
DYEAR=2008
DGENRE=Jazz
TTITLE0=Rosenberg Trio - My Blue Heaven
TTITLE1=Tchavolo Schmitt - Sweet Sue, Just You
TTITLE2=Martin Weiss - Little Twinkle Star
TTITLE3=Mandino Reinhardt - Digo O Dives
TTITLE4=Zigeli Winter Quartet - Me Digom Les Glei
TTITLE5=Fapy Lafertin Quintet and Tim Kliphousse - Exactely Like You
TTITLE6=Lolo Meier - I Love You
TTITLE7=Reiner Voet and Pigalle 44 - New York City
TTITLE8=Moreno - Tchou Tchou
TTITLE9=Tchan Tchou Vidal - The Sheik Of Araby
TTITLE10=Samson Schmitt and Timbo Mehrstein - I Wonder Where's My Baby Tonight
TTITLE11=Les Enfants de Django - It's All Right With Me (Live)
TTITLE12=Note Manouche - Le Flair De Celmar
TTITLE13=Angelo Debarre - Valse De Bamboula
TTITLE14=Christian Escoude - La Folle
TTITLE15=Zaiti - Baro Devel
TTITLE16=Matelo Ferret - Gagoug
TTITLE17=Django ReinHardt and stephane Grappelli - Echoes Of France (La Marseillaise)
EXTD=YEAR: 2008
EXTT0=
EXTT1=
EXTT2=
EXTT3=
EXTT4=
EXTT5=
EXTT6=
EXTT7=
EXTT8=
EXTT9=
EXTT10=
EXTT11=
EXTT12=
EXTT13=
EXTT14=
EXTT15=
EXTT16=
EXTT17=
PLAYORDER=
